<svg width="26" height="21" viewBox="0 0 26 21" fill="none" xmlns="http://www.w3.org/2000/svg">
<path d="M24.5176 0.780677C22.1153 0.915653 17.3405 1.40695 14.3929 3.19331C14.1894 3.31657 14.0742 3.53574 14.0742 3.7649V19.5571C14.0742 20.0583 14.6278 20.3752 15.0947 20.1425C18.1274 18.6313 22.5134 18.219 24.682 18.1062C25.4224 18.0675 25.998 17.4799 25.998 16.7755V2.11307C25.9985 1.34445 25.3251 0.735541 24.5176 0.780677ZM12.3531 3.19331C9.40586 1.40695 4.63105 0.916087 2.22874 0.780677C1.42124 0.735541 0.747894 1.34445 0.747894 2.11307V16.7759C0.747894 17.4808 1.32348 18.0684 2.06391 18.1066C4.23344 18.2194 8.6216 18.6322 11.6543 20.1443C12.1199 20.3765 12.6718 20.0601 12.6718 19.5601V3.75709C12.6718 3.5275 12.5569 3.317 12.3531 3.19331Z" fill="white"/>
</svg>
