<svg width="26" height="26" viewBox="0 0 26 26" fill="none" xmlns="http://www.w3.org/2000/svg">
<path d="M11.7918 0.588482L1.53375 4.55189C0.611507 4.90758 -3.05176e-05 5.82221 -3.05176e-05 6.83847V18.2765C-3.05176e-05 19.2013 0.50794 20.0448 1.30688 20.4563L11.5649 25.7409C12.2307 26.0864 13.0149 26.0864 13.6807 25.7409L23.9387 20.4563C24.7426 20.0448 25.2456 19.1962 25.2456 18.2765V6.83847C25.2456 5.82221 24.6341 4.91266 23.7118 4.55697L13.4538 0.593563C12.9212 0.380149 12.3294 0.380149 11.7918 0.588482ZM12.6253 3.74396L22.0942 7.4025V7.45839L12.6253 11.4218L3.15629 7.45839V7.4025L12.6253 3.74396ZM14.2034 21.8334V14.2673L22.0942 10.9645V17.7683L14.2034 21.8334Z" fill="white"/>
</svg>
