<svg width="25" height="19" viewBox="0 0 25 19" fill="none" xmlns="http://www.w3.org/2000/svg">
<path d="M24.5108 10.2061L16.2255 18.4092C15.4857 19.1416 14.2035 18.6289 14.2035 17.5791V12.8916H7.49627C6.84034 12.8916 6.31265 12.3692 6.31265 11.7198V7.03226C6.31265 6.38284 6.84034 5.86038 7.49627 5.86038H14.2035V1.17288C14.2035 0.127961 15.4808 -0.389617 16.2255 0.342805L24.5108 8.54593C24.9695 9.00491 24.9695 9.7471 24.5108 10.2061ZM9.46897 18.1651V16.2119C9.46897 15.8897 9.20265 15.626 8.87716 15.626H4.73448C3.86156 15.626 3.15632 14.9278 3.15632 14.0635V4.68851C3.15632 3.82425 3.86156 3.12601 4.73448 3.12601H8.87716C9.20265 3.12601 9.46897 2.86234 9.46897 2.54007V0.586945C9.46897 0.26468 9.20265 0.00100799 8.87716 0.00100799H4.73448C2.12065 0.00100799 0 2.10062 0 4.68851V14.0635C0 16.6514 2.12065 18.751 4.73448 18.751H8.87716C9.20265 18.751 9.46897 18.4873 9.46897 18.1651Z" fill="white"/>
</svg>
